<mxfile host="app.diagrams.net" modified="2023-09-18T16:07:39.061Z" agent="Mozilla/5.0 (Macintosh; Intel Mac OS X 10.15; rv:109.0) Gecko/20100101 Firefox/117.0" version="21.3.7" etag="Pcf4sXtgHqyhaJa18kKR" type="github">
  <diagram name="Page-1" id="LrXYyVtPMNwnTppJ2Sq_">
    <mxGraphModel>
      <root>
        <mxCell id="0" />
        <mxCell id="1" parent="0" />
      </root>
    </mxGraphModel>
  </diagram>
</mxfile>
